<svg width="28" height="29" viewBox="0 0 28 29" fill="none" xmlns="http://www.w3.org/2000/svg">
<path d="M8.56233 11.877L13.9999 6.43949L19.4403 11.8798L22.6042 8.71574L13.9999 0.111328L5.39831 8.71296L8.56233 11.877ZM3.1641 10.9469L6.32808 14.1109L3.16394 17.275L0 14.1111L3.1641 10.9469ZM8.56233 16.3453L13.9999 21.7826L19.4402 16.3426L22.6059 19.505L22.6042 19.5066L13.9999 28.111L5.39819 19.5094L5.39379 19.5051L8.56233 16.3453ZM28 14.1115L24.836 17.2754L21.6721 14.1115L24.836 10.9475L28 14.1115Z" fill="#F0B90B"/>
<path d="M17.2021 14.1098H17.2036L13.9929 10.8991L10.7807 14.1113L10.7851 14.1158L13.9929 17.3237L17.2051 14.1113L17.2021 14.1098Z" fill="#F0B90B"/>
</svg>
