<svg width="25" height="25" viewBox="0 0 25 25" fill="none" xmlns="http://www.w3.org/2000/svg">
<path d="M12.3336 24.6673C19.1453 24.6673 24.6673 19.1453 24.6673 12.3336C24.6673 5.52196 19.1453 0 12.3336 0C5.52196 0 0 5.52196 0 12.3336C0 19.1453 5.52196 24.6673 12.3336 24.6673Z" fill="#0B0E11"/>
<path d="M8.87761 10.9119L12.3374 7.45218L15.7989 10.9137L17.812 8.90048L12.3374 3.42578L6.86445 8.89871L8.87761 10.9119ZM5.4429 10.3201L7.45603 12.3332L5.4428 14.3465L3.42969 12.3333L5.4429 10.3201ZM8.87761 13.7549L12.3374 17.2145L15.7988 13.7532L17.8131 15.7653L17.812 15.7663L12.3374 21.241L6.86438 15.7681L6.86158 15.7654L8.87761 13.7549ZM21.2452 12.3336L19.232 14.3467L17.2189 12.3336L19.232 10.3205L21.2452 12.3336Z" fill="#F0B90B"/>
<path d="M14.3748 12.3319H14.3757L12.3329 10.2891L10.2891 12.3329L10.2918 12.3358L12.3329 14.3768L14.3767 12.3329L14.3748 12.3319Z" fill="#F0B90B"/>
</svg>
